# xmcd CD database file
#
# Track frame offsets:
#	150
#	13352
#	24547
#	38862
#	53066
#	65859
#	78567
#	90480
#	104444
#	114279
#	126609
#	138790
#	152934
#	164541
#	178553
#	191517
#	204919
#	218674
#	232397
#	246827
#	260611
#	275157
#	289376
#	300681
#	312471
#
# Disc length: 4335 seconds
#
# Revision: 0
# Processed by: cddbd v1.4PL0 Copyright (c) Steve Scherf et al.
# Submitted via: CDex 1.40Release
#
DISCID=8010ed19
DTITLE=Ernest Tubb - The Texas Troubadour - Disc Two
DYEAR=1900
DGENRE=Country
TTITLE0=Slippin' Around
TTITLE1=My Tennessee Baby
TTITLE2=My Filipino Rose
TTITLE3=Warm Red Wine
TTITLE4=Blue Christmas
TTITLE5=White Christmas
TTITLE6=Tennessee Border #2
TTITLE7=Letters Have No Arms
TTITLE8=Don't Be Ashamed Of Your Age
TTITLE9=I'll Take A Backseat For You
TTITLE10=I Love You Because
TTITLE11=Unfaithful One
TTITLE12=Throw Your Love My Way
TTITLE13=Give Me A Little Old Fashioned Love
TTITLE14=Hillbilly Fever #15
TTITLE15=I'm The One Who Loves You
TTITLE16=Goodnight Irene
TTITLE17=Don't Stay Too Long
TTITLE18=Hey La La
TTITLE19=Driftwood On The River
TTITLE20=The Strange Little Girl
TTITLE21=Missing In Action
TTITLE22=Somebody's Stolen My Honey
TTITLE23=Fortunes In Memories
TTITLE24=Too Old To Cut The Mustard
EXTD=ID3G: 2
EXTT0=
EXTT1=
EXTT2=
EXTT3=
EXTT4=
EXTT5=
EXTT6=
EXTT7=
EXTT8=
EXTT9=
EXTT10=
EXTT11=
EXTT12=
EXTT13=
EXTT14=
EXTT15=
EXTT16=
EXTT17=
EXTT18=
EXTT19=
EXTT20=
EXTT21=
EXTT22=
EXTT23=
EXTT24=
PLAYORDER=
